<?xml version="1.0" encoding="UTF-8" standalone="no"?>
<svg
   width="32"
   height="32"
   viewBox="0 0 16 16"
   version="1.1"
   id="svg1"
   sodipodi:docname="canasto.svg"
   inkscape:version="1.4 (e7c3feb100, 2024-10-09)"
   xmlns:inkscape="http://www.inkscape.org/namespaces/inkscape"
   xmlns:sodipodi="http://sodipodi.sourceforge.net/DTD/sodipodi-0.dtd"
   xmlns="http://www.w3.org/2000/svg"
   xmlns:svg="http://www.w3.org/2000/svg">
  <defs
     id="defs1" />
  <sodipodi:namedview
     id="namedview1"
     pagecolor="#ffffff"
     bordercolor="#111111"
     borderopacity="1"
     inkscape:showpageshadow="0"
     inkscape:pageopacity="0"
     inkscape:pagecheckerboard="1"
     inkscape:deskcolor="#d1d1d1"
     inkscape:zoom="55.09375"
     inkscape:cx="16"
     inkscape:cy="16"
     inkscape:window-width="3840"
     inkscape:window-height="2018"
     inkscape:window-x="0"
     inkscape:window-y="0"
     inkscape:window-maximized="1"
     inkscape:current-layer="svg1" />
  <path
     fill="#0284c7"
     d="M5.929 1.757a.5.5 0 1 0-.858-.514L2.217 6H.5a.5.5 0 0 0-.5.5v1a.5.5 0 0 0 .5.5h.623l1.844 6.456A.75.75 0 0 0 3.69 15h8.622a.75.75 0 0 0 .722-.544L14.877 8h.623a.5.5 0 0 0 .5-.5v-1a.5.5 0 0 0-.5-.5h-1.717L10.93 1.243a.5.5 0 1 0-.858.514L12.617 6H3.383zM4 10a1 1 0 0 1 2 0v2a1 1 0 1 1-2 0zm3 0a1 1 0 0 1 2 0v2a1 1 0 1 1-2 0zm4-1a1 1 0 0 1 1 1v2a1 1 0 1 1-2 0v-2a1 1 0 0 1 1-1"
     id="path1"
     style="fill:#ffffff;fill-opacity:1" />
</svg>
