<?xml version="1.0" encoding="UTF-8" standalone="no"?>
<svg
   width="32"
   height="32"
   viewBox="0 0 24 24"
   version="1.1"
   id="svg1"
   sodipodi:docname="gear.svg"
   inkscape:version="1.4 (e7c3feb100, 2024-10-09)"
   xmlns:inkscape="http://www.inkscape.org/namespaces/inkscape"
   xmlns:sodipodi="http://sodipodi.sourceforge.net/DTD/sodipodi-0.dtd"
   xmlns="http://www.w3.org/2000/svg"
   xmlns:svg="http://www.w3.org/2000/svg">
  <defs
     id="defs1" />
  <sodipodi:namedview
     id="namedview1"
     pagecolor="#ffffff"
     bordercolor="#111111"
     borderopacity="1"
     inkscape:showpageshadow="0"
     inkscape:pageopacity="0"
     inkscape:pagecheckerboard="1"
     inkscape:deskcolor="#d1d1d1"
     inkscape:zoom="55.09375"
     inkscape:cx="16"
     inkscape:cy="16"
     inkscape:window-width="3840"
     inkscape:window-height="2018"
     inkscape:window-x="3840"
     inkscape:window-y="0"
     inkscape:window-maximized="1"
     inkscape:current-layer="svg1" />
  <g
     fill="none"
     stroke="#0284c7"
     stroke-linecap="round"
     stroke-linejoin="round"
     stroke-width="2"
     id="g1"
     style="stroke:#000000;stroke-opacity:1">
    <circle
       cx="12"
       cy="12"
       r="3"
       id="circle1"
       style="stroke:#000000;stroke-opacity:1" />
    <path
       d="M10 21a1 1 0 0 0 4 0a1.8 1.8 0 0 1 3-1.3a1 1 0 0 0 2.8-2.7a1.8 1.8 0 0 1 1.2-3a1 1 0 0 0 0-4a1.8 1.8 0 0 1-1.2-3A1 1 0 0 0 17 4.4A1.8 1.8 0 0 1 14 3a1 1 0 0 0-4 0a1.8 1.8 0 0 1-3 1.4A1 1 0 0 0 4.2 7A1.8 1.8 0 0 1 3 10a1 1 0 0 0 0 4a1.8 1.8 0 0 1 1.2 3A1 1 0 0 0 7 19.7a1.8 1.8 0 0 1 3 1.3"
       id="path1"
       style="stroke:#000000;stroke-opacity:1" />
  </g>
  <path
     style="fill:#ffffff;stroke:#000000;stroke-width:0.0241951;stroke-opacity:1"
     d="m 15.765403,29.30419 c -0.409981,-0.08646 -0.750996,-0.338013 -0.934467,-0.689329 -0.10568,-0.202359 -0.137822,-0.340051 -0.156768,-0.671582 -0.05214,-0.912327 -0.334539,-1.653598 -0.875513,-2.298132 -1.370656,-1.63304 -3.8470844,-1.782193 -5.4187199,-0.326364 -0.1869373,0.173163 -0.3109385,0.253486 -0.5005007,0.324202 -0.1890414,0.07052 -0.4899516,0.08866 -0.6916862,0.0417 C 6.6003559,25.547936 6.1829516,24.986669 6.2218731,24.385908 6.2414633,24.08353 6.3507302,23.846748 6.6023328,23.561453 7.0190136,23.088971 7.2876344,22.583734 7.4416432,21.982833 7.8767318,20.285234 7.0634457,18.499793 5.4992595,17.718639 5.0211463,17.479869 4.5828445,17.363531 4.0179614,17.32546 3.8463797,17.313896 3.7109599,17.294312 3.6289388,17.2692 3.1918368,17.135374 2.8682966,16.809648 2.728837,16.363018 2.6937891,16.250774 2.6863301,16.187073 2.6863301,16 c 0,-0.187073 0.00746,-0.250774 0.042507,-0.363018 0.1398228,-0.447793 0.4618616,-0.772007 0.9001018,-0.906182 0.082021,-0.02511 0.2174409,-0.0447 0.3890226,-0.05626 0.4258316,-0.0287 0.7480874,-0.0952 1.1038905,-0.227811 1.6193721,-0.603535 2.609685,-2.225384 2.4094817,-3.94604 C 7.4442504,9.752249 7.1528604,9.0938292 6.6351445,8.4756745 6.3570917,8.1436784 6.2668177,7.9270645 6.2685994,7.5961429 6.2697252,7.3870702 6.3019887,7.2548155 6.4013815,7.0518416 6.5069332,6.8362907 6.7071633,6.636582 6.9258364,6.5287522 7.133905,6.4261516 7.3005993,6.3919303 7.5326149,6.4041843 c 0.3294299,0.017399 0.5553599,0.1248926 0.8427692,0.4009753 0.5494653,0.5278107 1.2888736,0.8790178 2.0668389,0.9817155 0.238079,0.031428 0.707815,0.035504 0.929779,0.00807 0.672624,-0.083144 1.288292,-0.3314683 1.832763,-0.7392289 0.182014,-0.1363131 0.501484,-0.4491248 0.652983,-0.6393765 0.399052,-0.501124 0.667716,-1.1075988 0.771908,-1.7424844 0.01556,-0.094838 0.03555,-0.3398752 0.04441,-0.5445264 0.01295,-0.2990608 0.02388,-0.3970308 0.05568,-0.4991492 0.137655,-0.4419874 0.459197,-0.7614408 0.907231,-0.9013388 0.19544,-0.061026 0.530596,-0.061026 0.726036,0 0.448034,0.139898 0.769576,0.4593514 0.907231,0.9013388 0.0318,0.1021184 0.04273,0.2000884 0.05568,0.4991492 0.01778,0.4106883 0.04604,0.6164375 0.126077,0.9180994 0.242062,0.9123199 0.828756,1.7032651 1.640102,2.2110864 0.448257,0.2805632 0.986355,0.468502 1.535886,0.5364304 0.221964,0.027437 0.6917,0.023362 0.929779,-0.00807 0.781405,-0.1031518 1.510466,-0.4496252 2.066839,-0.9822305 0.288236,-0.2759226 0.513755,-0.3830834 0.842769,-0.4004603 0.359961,-0.019012 0.654018,0.093375 0.909065,0.3474374 0.23865,0.2377277 0.352902,0.5114481 0.353761,0.8475243 8.55e-4,0.3338331 -0.0872,0.5446705 -0.366421,0.8773146 -0.309846,0.3691355 -0.509406,0.69984 -0.669686,1.1097847 -0.150901,0.3859546 -0.230647,0.7794267 -0.24779,1.2226037 -0.05632,1.456034 0.752562,2.823338 2.05397,3.471954 0.481905,0.24018 0.916392,0.355633 1.481754,0.393737 0.171582,0.01156 0.307002,0.03115 0.389024,0.05626 0.43824,0.134175 0.760279,0.458389 0.9001,0.906182 0.03505,0.112244 0.04251,0.175945 0.04251,0.363018 0,0.187073 -0.0075,0.250774 -0.04251,0.363018 -0.139821,0.447793 -0.461861,0.772007 -0.9001,0.906182 -0.08202,0.02511 -0.217442,0.0447 -0.389024,0.05626 -0.561202,0.03782 -1.013081,0.157241 -1.477091,0.390352 -1.574313,0.790904 -2.380494,2.563097 -1.945896,4.277576 0.144385,0.569592 0.426257,1.098852 0.829606,1.557708 0.185333,0.210841 0.271321,0.349846 0.333204,0.538647 0.04596,0.14022 0.05239,0.186557 0.05239,0.377642 0,0.191361 -0.0064,0.237328 -0.05268,0.378535 -0.134369,0.40997 -0.49455,0.742202 -0.909319,0.838761 -0.09417,0.02192 -0.181081,0.02731 -0.335791,0.02082 -0.347577,-0.01459 -0.554568,-0.107818 -0.855745,-0.385428 -0.289877,-0.267194 -0.609423,-0.484847 -0.94247,-0.641942 -1.188204,-0.560476 -2.56997,-0.467122 -3.665312,0.247628 -0.863981,0.563779 -1.46104,1.475242 -1.631841,2.491145 -0.02098,0.124787 -0.04585,0.361656 -0.05526,0.526376 -0.0124,0.216977 -0.02795,0.334495 -0.05643,0.426545 -0.135251,0.43713 -0.45859,0.760869 -0.897312,0.898421 -0.143675,0.04505 -0.471443,0.06446 -0.60669,0.03594 z m 0.978783,-8.012871 c 0.60675,-0.09469 1.067184,-0.236355 1.588202,-0.488643 1.444509,-0.699462 2.497456,-2.011551 2.865955,-3.571301 0.103995,-0.440183 0.128408,-0.674282 0.128408,-1.231375 0,-0.451836 -0.0053,-0.550607 -0.04183,-0.780488 -0.09547,-0.600724 -0.254865,-1.103986 -0.512337,-1.617611 -0.517755,-1.032856 -1.332515,-1.84732 -2.367596,-2.366737 C 17.842852,10.953075 17.38294,10.808057 16.726035,10.705761 16.56167,10.680166 16.407339,10.673256 16,10.673253 c -0.571882,-4e-6 -0.804931,0.02544 -1.27006,0.138665 -1.198256,0.291685 -2.258178,0.991828 -3.004193,1.984452 -0.535906,0.713059 -0.873553,1.529871 -1.016664,2.459444 -0.03988,0.259053 -0.05578,0.910502 -0.02947,1.207387 0.163875,1.849092 1.251953,3.459535 2.905418,4.300253 0.608741,0.309519 1.184464,0.473082 1.979351,0.562333 0.16232,0.01823 0.998746,-0.0062 1.179807,-0.03447 z"
     id="path2"
     transform="scale(0.75)" />
  <path
     style="fill:#000000;stroke:#000000;stroke-width:0.0241951;stroke-opacity:1;fill-opacity:0"
     d="m 15.573454,18.622853 c -0.84926,-0.149668 -1.567194,-0.679258 -1.948253,-1.437146 -0.09263,-0.184224 -0.187809,-0.458623 -0.231855,-0.668407 -0.05156,-0.24557 -0.04776,-0.842147 0.0068,-1.071848 0.128609,-0.541204 0.374088,-0.980322 0.750903,-1.343232 0.386035,-0.371789 0.815806,-0.600571 1.33163,-0.708874 0.24557,-0.05156 0.842147,-0.04776 1.071848,0.0068 0.499341,0.118661 0.913882,0.338403 1.257845,0.666764 0.409328,0.390762 0.66567,0.840656 0.785995,1.379467 0.05206,0.233103 0.06571,0.703383 0.02742,0.944672 -0.13702,0.863531 -0.668188,1.595699 -1.43857,1.98294 -0.179404,0.09018 -0.41903,0.17534 -0.632691,0.224854 -0.213631,0.04951 -0.760434,0.06288 -0.981094,0.02399 z"
     id="path3"
     transform="scale(0.75)" />
</svg>
