<?xml version="1.0" encoding="UTF-8" standalone="no"?>
<svg
   width="32"
   height="32"
   viewBox="0 0 1024 1024"
   version="1.1"
   id="svg2"
   sodipodi:docname="whatsApp.svg"
   inkscape:version="1.4 (e7c3feb100, 2024-10-09)"
   xmlns:inkscape="http://www.inkscape.org/namespaces/inkscape"
   xmlns:sodipodi="http://sodipodi.sourceforge.net/DTD/sodipodi-0.dtd"
   xmlns="http://www.w3.org/2000/svg"
   xmlns:svg="http://www.w3.org/2000/svg">
  <defs
     id="defs2" />
  <sodipodi:namedview
     id="namedview2"
     pagecolor="#ffffff"
     bordercolor="#111111"
     borderopacity="1"
     inkscape:showpageshadow="0"
     inkscape:pageopacity="0"
     inkscape:pagecheckerboard="1"
     inkscape:deskcolor="#d1d1d1"
     inkscape:zoom="55.09375"
     inkscape:cx="16"
     inkscape:cy="16.090754"
     inkscape:window-width="3840"
     inkscape:window-height="2018"
     inkscape:window-x="3840"
     inkscape:window-y="0"
     inkscape:window-maximized="1"
     inkscape:current-layer="svg2" />
  <path
     fill="#0284c7"
     d="m 742.28287,612.45711 c -12.45698,-6.4 -74.51335,-36.8 -86.05606,-40.91428 -11.54271,-4.34286 -19.99975,-6.4 -28.3425,6.39999 -8.45704,12.68572 -32.45673,40.91429 -39.9995,49.48572 -7.31419,8.45714 -14.74267,9.48571 -27.19966,3.2 -74.05621,-37.02857 -122.62703,-66.05714 -171.42641,-149.82857 -12.91413,-22.28571 12.91412,-20.68571 37.0281,-68.79999 4.11424,-8.45715 2.05712,-15.65714 -1.14284,-22.05714 -3.19996,-6.4 -28.3425,-68.34286 -38.85666,-93.6 -10.1713,-24.57143 -20.68545,-21.14286 -28.3425,-21.6 -7.31419,-0.45714 -15.65694,-0.45714 -24.11398,-0.45714 -8.45704,0 -22.05687,3.2 -33.59958,15.65714 -11.54271,12.68571 -44.11373,43.2 -44.11373,105.14285 0,61.94286 45.14229,121.94285 51.31364,130.39999 6.39992,8.45715 88.79889,135.54285 215.31158,190.28571 79.999,34.51428 111.31289,37.48571 151.31239,31.54285 24.34255,-3.65714 74.51335,-30.39999 84.91322,-59.99999 10.39987,-29.48572 10.39987,-54.74286 7.31419,-60 -3.08567,-5.6 -11.54271,-8.8 -23.9997,-14.85714"
     id="path1"
     style="stroke-width:1.14285" />
  <path
     fill="#0284c7"
     d="M 984.22269,313.59998 C 958.39445,252.22856 921.36634,197.14285 874.16693,149.82856 826.96753,102.62856 771.8825,65.485711 710.39756,39.771426 647.54121,13.371428 580.79919,0 512.00005,0 h -2.28568 C 440.45809,0.34285712 373.37322,14.057142 310.2883,41.028569 249.37478,67.085711 194.74689,104.11428 148.00462,151.31428 101.26235,198.51427 64.577101,253.37141 39.205991,314.51427 12.920607,377.82855 -0.33636918,445.14283 0.00648366,514.39997 0.34933649,593.71425 19.320527,672.45711 54.862937,742.8571 v 173.71433 c 0,29.02857 23.542562,52.57143 52.570773,52.57143 H 281.26009 C 351.65921,1004.6857 430.40108,1023.6571 509.71437,1024 h 2.39997 c 68.45628,0 134.85545,-13.2571 197.36895,-39.2 61.14209,-25.48571 116.11282,-62.05714 163.19795,-108.80011 47.1994,-46.74285 84.3418,-101.37142 110.28433,-162.28564 26.97113,-63.08571 40.68523,-130.17143 41.02803,-199.42856 0.3429,-69.6 -13.1427,-137.14285 -39.77091,-200.68571 M 811.53915,814.17133 c -80.11328,79.31439 -186.39766,122.97153 -299.5391,122.97153 h -1.94283 C 441.1438,936.8 372.68752,919.65715 312.23113,887.42858 l -9.59988,-5.14286 H 141.71899 V 721.37139 l -5.1428,-9.6 C 104.34803,651.31425 87.205389,582.85711 86.862536,513.94283 86.405399,399.99998 129.94771,293.02856 209.83242,212.45713 289.60284,131.88571 396.23008,87.314281 510.1715,86.857138 h 1.94284 c 57.14214,0 112.57001,11.085714 164.79793,33.028572 50.97079,21.37142 96.6845,52.11428 135.99829,91.42856 39.19951,39.2 70.05626,85.02857 91.42742,136 22.17115,52.79999 33.25673,108.79999 33.02816,166.62856 -0.68571,113.82856 -45.37086,220.45713 -125.82699,300.2285"
     id="path2"
     style="stroke-width:1.14285" />
</svg>
