<?xml version="1.0" encoding="UTF-8" standalone="no"?>
<svg
   width="35"
   height="40"
   viewBox="0 0 1120 1280"
   version="1.1"
   id="svg2"
   sodipodi:docname="whatsApp2.svg"
   inkscape:version="1.4 (e7c3feb100, 2024-10-09)"
   xmlns:inkscape="http://www.inkscape.org/namespaces/inkscape"
   xmlns:sodipodi="http://sodipodi.sourceforge.net/DTD/sodipodi-0.dtd"
   xmlns="http://www.w3.org/2000/svg"
   xmlns:svg="http://www.w3.org/2000/svg">
  <defs
     id="defs2" />
  <sodipodi:namedview
     id="namedview2"
     pagecolor="#ffffff"
     bordercolor="#111111"
     borderopacity="1"
     inkscape:showpageshadow="0"
     inkscape:pageopacity="0"
     inkscape:pagecheckerboard="1"
     inkscape:deskcolor="#d1d1d1"
     inkscape:zoom="55.09375"
     inkscape:cx="16"
     inkscape:cy="33.170732"
     inkscape:window-width="3840"
     inkscape:window-height="2018"
     inkscape:window-x="0"
     inkscape:window-y="0"
     inkscape:window-maximized="1"
     inkscape:current-layer="svg2" />
  <path
     fill="#0284c7"
     d="m 713.5,863.01515 c -10.9,-5.6 -65.2,-32.2 -75.3,-35.8 -10.1,-3.8 -17.5,-5.6 -24.8,5.6 -7.4,11.1 -28.4,35.8 -35,43.3 -6.4,7.4 -12.9,8.3 -23.8,2.8 -64.8,-32.4 -107.3,-57.8 -150,-131.1 -11.3,-19.5 11.3,-18.1 32.4,-60.2 3.6,-7.4 1.8,-13.7 -1,-19.3 -2.8,-5.6 -24.8,-59.8 -34,-81.9 -8.9,-21.5 -18.1,-18.5 -24.8,-18.9 -6.4,-0.4 -13.7,-0.4 -21.1,-0.4 -7.4,0 -19.3,2.8 -29.4,13.7 -10.1,11.1 -38.6,37.8 -38.6,92 0,54.2 39.5,106.7 44.9,114.1 5.6,7.4 77.7,118.6 188.4,166.5 70,30.2 97.4,32.8 132.4,27.6 21.3,-3.2 65.2,-26.6 74.3,-52.5 9.1,-25.8 9.1,-47.9 6.4,-52.5 -2.7,-4.9 -10.1,-7.7 -21,-13"
     id="path1" />
  <path
     fill="#0284c7"
     d="m 925.2,601.51515 c -22.6,-53.7 -55,-101.9 -96.3,-143.3 -41.3,-41.3 -89.5,-73.8 -143.3,-96.3 -55,-23.1 -113.4,-34.8 -173.6,-34.8 h -2 c -60.6,0.3 -119.3,12.3 -174.5,35.9 -53.3,22.8 -101.1,55.2 -142,96.5 -40.9,41.3 -73,89.3 -95.2,142.8 -23,55.4 -34.6,114.3 -34.3,174.9 0.3,69.4 16.9,138.3 48,199.9 v 152.00005 c 0,25.4 20.6,46 46,46 h 152.1 c 61.6,31.1 130.5,47.7 199.9,48 h 2.1 c 59.9,0 118,-11.6 172.7,-34.3 53.5,-22.3 101.6,-54.3 142.8,-95.2001 41.3,-40.9 73.8,-88.7 96.5,-141.99995 23.6,-55.2 35.6,-113.9 35.9,-174.5 0.3,-60.9 -11.5,-120 -34.8,-175.6 M 774.1,1039.5151 C 704,1108.9152 611,1147.1152 512,1147.1152 h -1.7 c -60.3,-0.3 -120.2,-15.3 -173.1,-43.5 l -8.4,-4.5 H 188 V 958.31515 l -4.5,-8.4 c -28.2,-52.9 -43.2,-112.8 -43.5,-173.1 -0.4,-99.7 37.7,-193.3 107.6,-263.8 69.8,-70.5 163.1,-109.5 262.8,-109.9 h 1.7 c 50,0 98.5,9.7 144.2,28.9 44.6,18.7 84.6,45.6 119,80 34.3,34.3 61.3,74.4 80,119 19.4,46.2 29.1,95.2 28.9,145.8 -0.6,99.6 -39.7,192.9 -110.1,262.69995"
     id="path2" />
</svg>
